<?xml version="1.0" standalone="no"?>
<!DOCTYPE svg PUBLIC "-//W3C//DTD SVG 20010904//EN"
 "http://www.w3.org/TR/2001/REC-SVG-20010904/DTD/svg10.dtd">
<svg version="1.0" xmlns="http://www.w3.org/2000/svg"
 width="768.000000pt" height="768.000000pt" viewBox="0 0 768.000000 768.000000"
 preserveAspectRatio="xMidYMid meet">
<metadata>
Created by potrace 1.11, written by Peter Selinger 2001-2013
</metadata>
<g transform="translate(0.000000,768.000000) scale(0.100000,-0.100000)"
fill="#000000" stroke="none">
<path d="M3063 5805 c-80 -34 -223 -216 -294 -372 -29 -62 -184 -620 -220
-788 -10 -49 -19 -107 -19 -128 0 -25 -5 -40 -16 -44 -32 -12 -549 29 -651 52
-25 6 -26 10 -43 181 -12 130 -25 174 -125 416 -77 186 -145 304 -190 334 -81
53 -280 10 -341 -73 -73 -100 -170 -388 -199 -593 -17 -125 -21 -570 -5 -601
15 -28 49 -24 60 7 6 14 10 142 10 289 0 308 12 389 85 605 92 268 130 310
281 310 53 0 67 -4 84 -22 35 -37 75 -115 140 -268 98 -231 117 -297 133 -464
11 -123 17 -150 34 -167 27 -28 218 -54 528 -73 290 -18 270 -26 290 120 15
112 23 148 129 541 42 155 85 303 96 328 26 61 159 262 196 297 34 31 93 58
129 58 32 0 59 -37 158 -217 130 -236 157 -366 157 -750 0 -127 4 -243 10
-257 12 -31 35 -34 50 -5 11 19 13 18 41 -26 16 -25 65 -98 109 -161 44 -62
85 -125 90 -139 9 -25 24 -162 35 -332 5 -87 4 -93 -13 -93 -28 0 -37 -16 -62
-103 -34 -124 -75 -214 -111 -248 -30 -28 -32 -32 -17 -43 15 -11 14 -19 -12
-95 -16 -46 -41 -101 -57 -123 -15 -21 -32 -45 -38 -53 -7 -10 -5 -20 8 -32
16 -16 20 -16 45 -3 37 21 86 106 118 204 14 45 31 86 38 92 6 6 162 25 351
43 187 18 429 41 539 52 237 23 463 25 559 4 126 -26 603 -181 627 -202 3 -3
-12 -19 -33 -36 -39 -33 -48 -63 -22 -73 27 -11 61 5 101 46 44 46 73 47 107
4 10 -14 45 -38 77 -54 98 -49 116 -70 149 -173 44 -139 55 -225 56 -412 0
-220 -11 -258 -99 -344 -57 -57 -237 -201 -250 -201 -3 0 -6 8 -6 19 0 10 -7
24 -15 31 -26 21 -55 -14 -55 -65 l0 -43 -142 -98 c-91 -63 -200 -127 -301
-176 -87 -43 -162 -78 -167 -78 -9 0 -15 18 -22 65 -4 26 -38 32 -55 9 -7 -10
-13 -39 -13 -65 l0 -47 -92 -31 c-51 -17 -131 -40 -178 -50 -122 -29 -504 -63
-717 -64 -163 -1 -184 1 -202 17 -18 16 -24 17 -51 6 -36 -15 -118 -11 -345
16 l-145 18 0 28 c0 44 -20 78 -47 78 -18 0 -27 -9 -39 -40 -12 -30 -22 -40
-39 -40 -36 0 -174 48 -248 87 -71 38 -202 150 -212 184 -5 14 3 30 25 55 62
71 10 118 -55 49 l-34 -36 -35 38 c-69 77 -168 199 -200 248 -30 45 -156 271
-156 279 0 2 44 9 98 15 53 7 198 33 321 57 391 79 496 123 677 285 64 58 196
205 252 281 27 37 29 74 4 87 -21 11 -52 -3 -52 -23 0 -8 -25 -42 -56 -77 -31
-35 -82 -94 -115 -130 -32 -37 -93 -95 -135 -128 -140 -113 -244 -153 -578
-220 -280 -57 -444 -78 -474 -62 -16 8 -24 8 -35 -3 -11 -11 -75 -17 -278 -27
-154 -7 -274 -17 -289 -23 -24 -12 -35 -2 -275 238 -360 360 -437 459 -487
616 -22 73 -23 84 -22 440 1 201 6 393 11 428 7 47 7 67 -2 79 -20 27 -60 -5
-68 -54 -14 -82 -29 -506 -24 -650 11 -299 49 -379 324 -696 169 -194 519
-493 553 -472 7 4 465 33 556 35 6 0 46 -64 89 -142 96 -177 111 -199 246
-358 60 -71 109 -133 109 -137 0 -5 -25 -67 -56 -138 -69 -158 -210 -584 -225
-678 -8 -48 -8 -101 0 -185 17 -182 50 -253 124 -267 56 -11 96 16 209 143
225 253 236 269 333 442 57 102 157 254 175 265 10 6 -20 -68 -109 -267 -96
-217 -106 -260 -105 -468 1 -211 4 -230 42 -230 21 0 36 11 62 44 207 265 317
391 407 467 54 45 120 109 147 143 57 71 148 208 177 269 l21 42 226 1 c368 1
680 38 885 104 116 38 117 38 121 16 3 -11 17 -149 31 -306 30 -324 32 -332
133 -473 32 -45 67 -97 78 -115 26 -45 61 -53 89 -20 43 50 91 457 111 940 5
118 4 172 -4 181 -9 11 13 30 106 93 l117 80 -4 -255 c-6 -484 40 -686 166
-717 59 -15 96 21 109 106 5 28 25 67 61 117 29 41 60 88 69 105 42 81 75 390
78 721 1 188 0 199 -19 213 -18 14 -22 13 -38 -7 -15 -18 -17 -44 -17 -189 0
-211 -16 -442 -40 -584 -17 -101 -22 -114 -67 -178 -74 -106 -92 -139 -99
-186 -5 -36 -10 -43 -27 -40 -13 2 -29 20 -44 48 -38 76 -54 203 -60 472 -5
207 -3 261 12 342 l17 96 120 92 c66 50 150 121 187 157 80 78 105 132 121
271 19 153 -17 451 -71 597 -37 96 -121 167 -247 209 -30 9 -56 22 -58 28 -3
7 17 48 44 92 87 146 112 266 93 463 -16 166 -46 288 -96 386 -23 44 -111 186
-197 315 -224 338 -314 424 -513 491 -87 29 -171 28 -340 -1 -199 -34 -337
-80 -412 -137 -25 -19 -46 -33 -48 -31 -1 2 -8 13 -14 26 -14 26 -37 29 -49 5
-5 -10 -8 -119 -7 -243 1 -178 5 -238 19 -285 28 -101 66 -166 135 -236 71
-71 125 -98 251 -125 153 -33 384 33 452 128 19 28 20 39 15 130 -8 120 -23
153 -68 144 -34 -7 -35 -3 -43 127 -5 90 -14 113 -51 127 -19 7 -18 9 8 19 16
6 44 11 63 11 39 0 122 -19 128 -29 2 -3 12 -76 21 -161 19 -171 32 -214 69
-231 20 -10 32 -8 65 8 l41 20 6 -36 c4 -20 8 -94 8 -166 0 -111 -4 -145 -27
-235 -15 -58 -48 -146 -72 -196 -25 -50 -45 -97 -45 -103 0 -7 7 -26 16 -43
15 -29 15 -31 -2 -24 -58 23 -212 57 -300 68 -122 14 -223 7 -874 -56 -245
-24 -446 -42 -448 -41 -2 2 14 53 34 114 37 109 38 110 50 81 18 -42 29 -38
44 16 14 50 9 289 -10 444 -13 105 -34 149 -146 305 -47 66 -98 147 -115 181
-16 34 -35 64 -43 67 -11 4 -15 54 -18 249 -5 232 -6 248 -36 359 -17 64 -39
133 -49 155 -40 87 -187 336 -215 364 -26 26 -36 30 -86 30 -31 -1 -72 -7 -89
-15z m2146 -867 c22 -23 47 -90 57 -153 l6 -40 -105 0 c-104 0 -106 -1 -138
-30 -17 -16 -44 -46 -59 -67 l-27 -36 3 131 2 132 30 23 c26 20 152 60 194 61
10 1 26 -9 37 -21z m-337 -43 c-28 -31 -66 -85 -84 -122 l-32 -66 -11 64 c-13
79 -19 89 -55 89 -41 0 -68 -40 -144 -210 -35 -78 -66 -138 -69 -133 -2 4 -8
51 -12 104 -6 85 -4 101 13 135 24 48 43 65 107 96 77 39 256 92 324 97 7 1
-10 -24 -37 -54z m602 -105 c59 -61 124 -148 221 -296 153 -231 205 -322 235
-408 44 -129 65 -404 39 -511 -13 -56 -93 -217 -120 -241 -15 -14 -22 -13 -75
9 -33 14 -129 49 -214 78 -85 29 -157 54 -159 55 -13 11 88 91 180 143 36 20
85 36 140 46 110 19 106 20 113 -19 11 -60 64 -85 90 -44 8 13 8 23 -1 38 -11
16 -9 25 8 54 38 65 -11 95 -111 66 -19 -6 -75 -17 -125 -26 -66 -11 -106 -24
-149 -50 -32 -19 -60 -33 -62 -31 -2 1 29 61 68 132 104 190 143 279 168 381
25 107 24 145 -6 158 -17 8 -23 21 -26 58 -8 83 -50 107 -114 67 l-34 -21 0
29 c-1 46 -34 105 -91 160 -30 29 -64 60 -77 69 -13 9 -22 26 -22 42 0 24 -22
128 -36 176 -12 36 73 -24 160 -114z m-790 -140 c4 -49 4 -114 1 -143 -6 -43
-4 -57 10 -71 34 -34 49 -13 96 142 18 56 34 100 36 98 2 -2 11 -35 19 -72 15
-72 15 -61 -22 -375 -6 -51 -4 -58 15 -68 17 -9 24 -8 41 9 11 11 20 28 20 37
0 22 31 103 39 103 3 -1 15 -15 26 -33 11 -17 32 -37 45 -43 38 -17 105 -6
133 22 l25 24 6 -22 c3 -13 6 -37 6 -54 0 -103 -263 -178 -436 -126 -111 34
-190 96 -236 186 -13 26 -13 36 -1 85 15 63 153 391 164 391 3 0 10 -40 13
-90z m772 -157 c8 -18 14 -53 14 -78 0 -40 -4 -47 -32 -65 -40 -24 -43 -19
-52 75 -4 39 -9 93 -13 120 l-6 50 38 -35 c21 -19 44 -49 51 -67z m-386 -70
l0 -97 -30 29 c-44 42 -46 64 -13 118 15 26 31 47 35 47 5 0 8 -44 8 -97z
m545 -83 c-6 -34 -3 -43 21 -66 l27 -28 -17 -71 c-9 -39 -30 -98 -46 -131
l-28 -59 -1 85 c-1 47 -6 125 -11 175 -9 85 -8 91 12 112 34 37 51 30 43 -17z
m-2830 -2681 c87 -89 205 -157 342 -198 l72 -22 -64 -87 c-35 -47 -103 -155
-151 -239 -67 -118 -112 -181 -201 -285 -217 -252 -255 -282 -287 -220 -41 80
-50 320 -17 420 11 31 47 143 81 247 57 176 158 435 170 435 3 0 28 -23 55
-51z m2701 -6 c-2 -10 -10 -108 -16 -218 -21 -376 -63 -775 -80 -775 -15 0
-149 210 -155 242 -8 47 -55 552 -55 591 0 31 3 33 148 104 81 39 151 72 155
72 5 1 6 -7 3 -16z m-2036 -254 c38 -5 128 -16 201 -22 74 -7 134 -17 136 -23
2 -6 -33 -66 -79 -135 -82 -124 -139 -188 -278 -309 -40 -35 -126 -129 -189
-209 -64 -79 -124 -153 -133 -165 -17 -20 -18 -16 -18 110 0 170 15 227 123
471 47 105 94 215 104 242 20 58 20 58 133 40z"/>
<path d="M2950 5227 c-46 -16 -68 -57 -81 -156 -14 -104 -8 -388 9 -418 19
-35 51 -48 70 -29 13 12 13 20 4 41 -13 28 -15 394 -3 449 8 37 37 58 51 36 5
-8 10 -81 10 -162 0 -121 3 -149 16 -163 20 -20 35 -15 52 16 8 17 11 64 8
165 -5 158 -18 208 -61 224 -31 12 -31 12 -75 -3z"/>
<path d="M1253 5019 c-57 -36 -68 -76 -68 -239 0 -125 3 -149 19 -172 19 -29
50 -37 59 -15 2 7 1 69 -4 138 -11 171 8 239 66 239 29 0 35 -34 35 -197 0
-122 11 -173 36 -173 27 0 34 41 34 195 0 157 -11 217 -43 237 -24 15 -102 8
-134 -13z"/>
<path d="M2827 4046 c-14 -13 -29 -36 -33 -50 -5 -21 -12 -26 -35 -26 -25 0
-30 -5 -35 -29 -4 -21 -13 -31 -28 -33 -15 -2 -25 -16 -35 -45 -23 -64 -10
-73 97 -66 48 3 91 9 97 14 5 5 41 9 80 9 75 0 95 9 95 45 0 25 -55 55 -101
55 -37 0 -69 16 -69 35 0 8 11 26 25 41 28 30 31 44 13 62 -18 18 -43 14 -71
-12z"/>
<path d="M1390 3940 c-16 -16 -18 -25 -10 -40 6 -11 15 -20 20 -20 6 0 10 -11
10 -25 0 -27 -9 -30 -59 -15 -40 11 -71 -2 -71 -30 0 -25 22 -36 104 -51 63
-12 68 -11 87 8 l21 20 25 -25 c20 -20 31 -23 59 -19 19 3 46 15 61 26 14 12
41 21 59 21 24 0 38 7 49 24 9 13 29 26 44 29 49 10 51 62 2 73 -14 4 -31 11
-38 16 -7 5 -21 7 -33 3 -12 -4 -26 0 -36 9 -12 13 -41 16 -145 16 -116 0
-131 -2 -149 -20z m110 -85 c0 -8 -4 -15 -10 -15 -5 0 -10 7 -10 15 0 8 5 15
10 15 6 0 10 -7 10 -15z"/>
<path d="M2607 3773 c-14 -13 -6 -53 12 -63 45 -24 66 2 41 51 -10 19 -40 26
-53 12z"/>
<path d="M2100 3685 c-16 -19 -6 -45 20 -52 13 -3 20 -14 20 -29 0 -17 -6 -23
-26 -26 -36 -4 -53 -31 -34 -53 8 -10 13 -33 11 -57 -1 -23 4 -49 13 -63 11
-17 16 -47 16 -97 0 -86 -16 -116 -81 -160 -39 -26 -50 -29 -114 -26 l-70 3
-29 87 c-30 91 -45 108 -72 81 -31 -31 9 -174 63 -225 22 -20 34 -23 106 -22
50 0 96 7 118 16 50 22 107 74 130 121 l21 39 24 -35 c35 -52 94 -67 259 -67
139 0 171 9 163 46 -3 17 -15 19 -158 25 -161 6 -187 12 -212 51 -24 37 -78
200 -81 242 -2 36 0 40 29 48 18 4 34 15 38 23 6 18 -2 45 -15 45 -5 0 -9 9
-9 19 0 36 -12 51 -40 51 -16 0 -30 7 -34 15 -7 19 -40 19 -56 0z"/>
</g>
</svg>
